<svg version="1.1" id="Layer_1" xmlns="http://www.w3.org/2000/svg" xmlns:xlink="http://www.w3.org/1999/xlink" x="0px" y="0px"
	 width="100%" viewBox="0 0 2048 2048" enable-background="new 0 0 2048 2048" xml:space="preserve">
<path fill="#F7F7F7" opacity="1.000000" stroke="none" 
	d="
M931.000000,2049.000000 
	C620.666687,2049.000000 310.833344,2049.000000 1.000000,2049.000000 
	C1.000000,1366.333374 1.000000,683.666687 1.000000,1.000000 
	C683.666687,1.000000 1366.333374,1.000000 2049.000000,1.000000 
	C2049.000000,683.666687 2049.000000,1366.333374 2049.000000,2049.000000 
	C1676.500000,2049.000000 1304.000000,2049.000000 931.000000,2049.000000 
M1279.998047,693.997620 
	C1279.998047,693.997620 1280.042114,693.980225 1279.851685,693.326538 
	C1261.304565,669.773071 1239.134888,650.284241 1213.604492,634.637939 
	C1167.992065,606.684326 1117.817017,594.681030 1064.909790,594.368958 
	C970.586304,593.812561 876.256958,594.224548 781.930054,594.281433 
	C776.774109,594.284546 771.579224,594.422363 766.469299,595.045837 
	C742.230103,598.003357 724.684875,610.260803 714.737000,632.850708 
	C710.006104,643.593872 709.114563,654.973877 709.116516,666.504089 
	C709.137085,790.495361 709.166687,914.486633 709.178467,1038.477905 
	C709.191284,1173.301758 709.187866,1308.125488 709.191406,1442.949341 
	C709.191528,1446.891479 709.191406,1450.833618 709.191406,1454.691772 
	C710.292542,1454.918579 710.772766,1455.104492 711.252808,1455.103760 
	C740.416565,1455.060059 769.583191,1455.216675 798.742493,1454.826050 
	C808.884155,1454.690308 818.646423,1452.040527 827.597656,1446.021973 
	C827.597656,1446.021973 827.999756,1445.919067 828.311157,1446.112915 
	C828.599976,1445.755737 828.888733,1445.398682 829.601318,1444.993896 
	C829.601318,1444.993896 830.000671,1444.844360 830.474426,1444.988159 
	C844.516846,1436.034302 853.655945,1423.397339 856.836853,1407.149292 
	C858.612671,1398.078369 859.134521,1388.640259 859.151550,1379.365845 
	C859.290405,1303.896606 859.171997,1228.427124 859.172302,1152.957642 
	C859.172302,1151.554443 859.667480,1150.151123 860.871826,1148.854858 
	C907.187500,1148.897827 953.503113,1148.944458 999.818787,1148.973633 
	C1002.483521,1148.975342 1004.589294,1148.932251 1006.346069,1151.990845 
	C1042.398926,1214.762207 1078.624390,1277.434204 1114.816162,1340.125732 
	C1128.793213,1364.336914 1142.496094,1388.711670 1156.820923,1412.715210 
	C1173.934082,1441.391235 1199.248657,1455.755615 1232.967041,1455.404663 
	C1266.284058,1455.057861 1299.607178,1455.315308 1332.927612,1455.289429 
	C1334.526245,1455.288208 1336.124512,1455.109741 1338.556274,1454.963745 
	C1338.189331,1449.088257 1338.283325,1443.592041 1337.427612,1438.247803 
	C1335.172485,1424.163086 1328.188721,1411.948975 1321.207153,1399.829102 
	C1274.514648,1318.771118 1227.743042,1237.758789 1181.017944,1156.719360 
	C1176.298584,1148.534180 1171.718994,1140.268433 1167.811157,1131.921387 
	C1168.586182,1131.619019 1169.360596,1131.315430 1170.136230,1131.014526 
	C1227.071655,1108.936890 1272.099976,1072.703125 1302.631714,1019.332031 
	C1327.439453,975.966736 1338.468628,928.982117 1339.416382,879.294800 
	C1340.383789,828.581665 1331.305176,780.087708 1306.918701,735.257080 
	C1299.092896,720.870422 1289.051392,707.688965 1279.998047,693.997620 
z"/>
<path fill="#1A4B94" opacity="1.000000" stroke="none" 
	d="
M827.999756,1445.919067 
	C827.999756,1445.919067 827.597656,1446.021973 826.984741,1446.025879 
	C825.084106,1446.281738 823.663086,1446.265015 822.529724,1446.827759 
	C812.618591,1451.749268 802.040894,1453.057495 791.145447,1453.029663 
	C766.818604,1452.967407 742.491516,1453.015015 718.164490,1453.013428 
	C711.002197,1453.012939 710.992676,1453.006348 710.992615,1445.836792 
	C710.991516,1183.571655 710.950439,921.306519 711.189087,659.041687 
	C711.196472,650.929688 712.815186,642.287048 715.898987,634.805298 
	C727.125610,607.568359 746.954041,596.314453 772.743835,596.389404 
	C879.467224,596.699646 986.225891,593.275208 1092.907715,598.205566 
	C1107.160767,598.864319 1121.530273,601.452576 1135.391968,604.947266 
	C1150.858521,608.846436 1165.875366,614.607910 1180.948608,619.951965 
	C1187.307007,622.206360 1193.699463,624.840576 1199.394043,628.395508 
	C1212.528809,636.595215 1225.826050,644.727173 1237.961670,654.278625 
	C1248.982300,662.952332 1258.559082,673.461548 1268.763550,683.170837 
	C1272.536133,686.760315 1276.283325,690.376282 1280.042114,693.980225 
	C1280.042114,693.980225 1279.998047,693.997620 1280.000732,694.347900 
	C1281.957886,697.709839 1283.834839,700.775330 1285.879272,703.724731 
	C1303.150513,728.638916 1316.622559,755.408936 1325.289917,784.509949 
	C1332.756348,809.579102 1336.527588,835.228943 1337.001953,861.366638 
	C1337.427124,884.786865 1336.435059,908.070984 1332.153687,931.213806 
	C1328.799438,949.345093 1324.447388,967.217163 1317.072632,984.023254 
	C1310.267700,999.530701 1302.550293,1014.798401 1293.609009,1029.159424 
	C1285.690186,1041.878296 1276.224609,1053.828613 1266.157227,1064.956177 
	C1257.420288,1074.612915 1247.282715,1083.147461 1237.022095,1091.236572 
	C1228.099609,1098.270874 1218.390015,1104.417480 1208.565552,1110.165283 
	C1199.020020,1115.750000 1188.898804,1120.354126 1179.006958,1125.342529 
	C1169.068970,1130.354126 1166.281982,1129.239746 1161.233032,1119.379272 
	C1153.538452,1104.352295 1145.626099,1089.435547 1137.700684,1074.528198 
	C1124.945679,1050.536377 1112.082764,1026.602173 1099.320312,1002.614319 
	C1096.957031,998.172363 1097.752686,996.337524 1102.391724,994.760010 
	C1108.299683,992.750977 1114.444946,991.266602 1120.072510,988.659485 
	C1124.739624,986.497375 1128.805176,983.036560 1133.468384,980.099854 
	C1134.581787,979.411560 1135.364014,978.774536 1136.519653,978.100586 
	C1143.107422,975.834595 1148.024414,972.053284 1151.514160,966.095093 
	C1159.745483,960.417358 1166.130249,953.604797 1169.514893,944.063904 
	C1170.561890,943.314697 1171.585449,942.794861 1171.944214,941.981567 
	C1176.009033,932.768066 1180.850342,923.777649 1183.770508,914.204956 
	C1189.066284,896.844116 1191.233398,878.908264 1188.909424,860.742432 
	C1187.737671,851.583618 1186.410156,842.370361 1184.105591,833.452454 
	C1181.978027,825.220215 1178.722046,817.235413 1175.407837,809.375793 
	C1174.076050,806.217529 1171.263184,803.683716 1169.084595,800.500000 
	C1165.419312,794.651367 1162.406860,788.619324 1158.067749,783.775696 
	C1132.751465,755.515930 1100.023438,742.718628 1062.970947,742.249207 
	C997.003174,741.413513 931.017212,742.012817 865.038879,742.012695 
	C863.872620,742.012695 862.534668,741.665100 861.585144,742.121338 
	C860.477173,742.653748 859.708557,743.892273 858.498291,745.089966 
	C857.805969,747.578918 857.060303,749.802307 857.059753,752.025879 
	C857.007263,961.469177 857.049133,1170.912476 856.888977,1380.355591 
	C856.881836,1389.714844 855.531128,1399.148804 853.992798,1408.412964 
	C851.800476,1421.616211 844.444946,1431.862305 834.017273,1440.069702 
	C832.417114,1441.329346 831.326782,1443.236572 830.000671,1444.844360 
	C830.000671,1444.844360 829.601318,1444.993896 829.142517,1445.086670 
	C828.455750,1445.425903 828.227722,1445.672485 827.999756,1445.919067 
z"/>
<path fill="#3C414A" opacity="1.000000" stroke="none" 
	d="
M1167.074585,1132.040039 
	C1171.718994,1140.268433 1176.298584,1148.534180 1181.017944,1156.719360 
	C1227.743042,1237.758789 1274.514648,1318.771118 1321.207153,1399.829102 
	C1328.188721,1411.948975 1335.172485,1424.163086 1337.427612,1438.247803 
	C1338.283325,1443.592041 1338.189331,1449.088257 1338.556274,1454.963745 
	C1336.124512,1455.109741 1334.526245,1455.288208 1332.927612,1455.289429 
	C1299.607178,1455.315308 1266.284058,1455.057861 1232.967041,1455.404663 
	C1199.248657,1455.755615 1173.934082,1441.391235 1156.820923,1412.715210 
	C1142.496094,1388.711670 1128.793213,1364.336914 1114.816162,1340.125732 
	C1078.624390,1277.434204 1042.398926,1214.762207 1006.346069,1151.990845 
	C1004.589294,1148.932251 1002.483521,1148.975342 999.818787,1148.973633 
	C953.503113,1148.944458 907.187500,1148.897827 860.226929,1148.439697 
	C859.390625,1146.226318 859.034180,1144.428101 859.032410,1142.629639 
	C859.001038,1109.979004 858.991821,1077.328369 859.023804,1044.677734 
	C859.038452,1029.688477 859.151917,1014.699280 859.669922,999.721069 
	C924.160034,999.690063 988.202576,999.891296 1052.240234,999.417786 
	C1066.443726,999.312744 1080.629761,996.826355 1094.866455,995.851868 
	C1095.284058,997.529358 1095.475464,998.884705 1096.061523,1000.039612 
	C1104.728027,1017.119263 1113.262939,1034.269409 1122.200073,1051.207031 
	C1133.306641,1072.256104 1144.680054,1093.165894 1156.104004,1114.045044 
	C1159.472412,1120.201172 1163.402100,1126.050293 1167.074585,1132.040039 
z"/>
<path fill="#325381" opacity="1.000000" stroke="none" 
	d="
M1279.946899,693.653381 
	C1276.283325,690.376282 1272.536133,686.760315 1268.763550,683.170837 
	C1258.559082,673.461548 1248.982300,662.952332 1237.961670,654.278625 
	C1225.826050,644.727173 1212.528809,636.595215 1199.394043,628.395508 
	C1193.699463,624.840576 1187.307007,622.206360 1180.948608,619.951965 
	C1165.875366,614.607910 1150.858521,608.846436 1135.391968,604.947266 
	C1121.530273,601.452576 1107.160767,598.864319 1092.907715,598.205566 
	C986.225891,593.275208 879.467224,596.699646 772.743835,596.389404 
	C746.954041,596.314453 727.125610,607.568359 715.898987,634.805298 
	C712.815186,642.287048 711.196472,650.929688 711.189087,659.041687 
	C710.950439,921.306519 710.991516,1183.571655 710.992615,1445.836792 
	C710.992676,1453.006348 711.002197,1453.012939 718.164490,1453.013428 
	C742.491516,1453.015015 766.818604,1452.967407 791.145447,1453.029663 
	C802.040894,1453.057495 812.618591,1451.749268 822.529724,1446.827759 
	C823.663086,1446.265015 825.084106,1446.281738 826.778198,1446.046875 
	C818.646423,1452.040527 808.884155,1454.690308 798.742493,1454.826050 
	C769.583191,1455.216675 740.416565,1455.060059 711.252808,1455.103760 
	C710.772766,1455.104492 710.292542,1454.918579 709.191406,1454.691772 
	C709.191406,1450.833618 709.191528,1446.891479 709.191406,1442.949341 
	C709.187866,1308.125488 709.191284,1173.301758 709.178467,1038.477905 
	C709.166687,914.486633 709.137085,790.495361 709.116516,666.504089 
	C709.114563,654.973877 710.006104,643.593872 714.737000,632.850708 
	C724.684875,610.260803 742.230103,598.003357 766.469299,595.045837 
	C771.579224,594.422363 776.774109,594.284546 781.930054,594.281433 
	C876.256958,594.224548 970.586304,593.812561 1064.909790,594.368958 
	C1117.817017,594.681030 1167.992065,606.684326 1213.604492,634.637939 
	C1239.134888,650.284241 1261.304565,669.773071 1279.946899,693.653381 
z"/>
<path fill="#325381" opacity="1.000000" stroke="none" 
	d="
M859.220520,999.710022 
	C859.151917,1014.699280 859.038452,1029.688477 859.023804,1044.677734 
	C858.991821,1077.328369 859.001038,1109.979004 859.032410,1142.629639 
	C859.034180,1144.428101 859.390625,1146.226318 859.756836,1148.386230 
	C859.667480,1150.151123 859.172302,1151.554443 859.172302,1152.957642 
	C859.171997,1228.427124 859.290405,1303.896606 859.151550,1379.365845 
	C859.134521,1388.640259 858.612671,1398.078369 856.836853,1407.149292 
	C853.655945,1423.397339 844.516846,1436.034302 830.237549,1444.916260 
	C831.326782,1443.236572 832.417114,1441.329346 834.017273,1440.069702 
	C844.444946,1431.862305 851.800476,1421.616211 853.992798,1408.412964 
	C855.531128,1399.148804 856.881836,1389.714844 856.888977,1380.355591 
	C857.049133,1170.912476 857.007263,961.469177 857.059753,752.025879 
	C857.060303,749.802307 857.805969,747.578918 858.546509,745.126953 
	C858.889160,744.898560 858.968079,744.991211 858.996338,745.459290 
	C859.041748,805.712830 859.047302,865.498291 859.081848,925.283752 
	C859.096191,950.092529 859.172424,974.901245 859.220520,999.710022 
z"/>
<path fill="#325381" opacity="1.000000" stroke="none" 
	d="
M1167.442871,1131.980713 
	C1163.402100,1126.050293 1159.472412,1120.201172 1156.104004,1114.045044 
	C1144.680054,1093.165894 1133.306641,1072.256104 1122.200073,1051.207031 
	C1113.262939,1034.269409 1104.728027,1017.119263 1096.061523,1000.039612 
	C1095.475464,998.884705 1095.284058,997.529358 1095.175293,995.682251 
	C1107.928589,990.026001 1120.415405,984.954773 1132.961182,979.950317 
	C1133.020020,980.017151 1133.137207,980.151184 1133.137207,980.151184 
	C1128.805176,983.036560 1124.739624,986.497375 1120.072510,988.659485 
	C1114.444946,991.266602 1108.299683,992.750977 1102.391724,994.760010 
	C1097.752686,996.337524 1096.957031,998.172363 1099.320312,1002.614319 
	C1112.082764,1026.602173 1124.945679,1050.536377 1137.700684,1074.528198 
	C1145.626099,1089.435547 1153.538452,1104.352295 1161.233032,1119.379272 
	C1166.281982,1129.239746 1169.068970,1130.354126 1179.006958,1125.342529 
	C1188.898804,1120.354126 1199.020020,1115.750000 1208.565552,1110.165283 
	C1218.390015,1104.417480 1228.099609,1098.270874 1237.022095,1091.236572 
	C1247.282715,1083.147461 1257.420288,1074.612915 1266.157227,1064.956177 
	C1276.224609,1053.828613 1285.690186,1041.878296 1293.609009,1029.159424 
	C1302.550293,1014.798401 1310.267700,999.530701 1317.072632,984.023254 
	C1324.447388,967.217163 1328.799438,949.345093 1332.153687,931.213806 
	C1336.435059,908.070984 1337.427124,884.786865 1337.001953,861.366638 
	C1336.527588,835.228943 1332.756348,809.579102 1325.289917,784.509949 
	C1316.622559,755.408936 1303.150513,728.638916 1285.879272,703.724731 
	C1283.834839,700.775330 1281.957886,697.709839 1280.013428,694.327148 
	C1289.051392,707.688965 1299.092896,720.870422 1306.918701,735.257080 
	C1331.305176,780.087708 1340.383789,828.581665 1339.416382,879.294800 
	C1338.468628,928.982117 1327.439453,975.966736 1302.631714,1019.332031 
	C1272.099976,1072.703125 1227.071655,1108.936890 1170.136230,1131.014526 
	C1169.360596,1131.315430 1168.586182,1131.619019 1167.442871,1131.980713 
z"/>
<path fill="#325381" opacity="1.000000" stroke="none" 
	d="
M828.155457,1446.015991 
	C828.227722,1445.672485 828.455750,1445.425903 828.930603,1445.110352 
	C828.888733,1445.398682 828.599976,1445.755737 828.155457,1446.015991 
z"/>
<path fill="#325381" opacity="1.000000" stroke="none" 
	d="
M858.840942,744.861511 
	C859.708557,743.892273 860.477173,742.653748 861.585144,742.121338 
	C862.534668,741.665100 863.872620,742.012695 865.038879,742.012695 
	C931.017212,742.012817 997.003174,741.413513 1062.970947,742.249207 
	C1100.023438,742.718628 1132.751465,755.515930 1158.067749,783.775696 
	C1162.406860,788.619324 1165.419312,794.651367 1169.022827,800.560791 
	C1169.000977,800.987183 1168.873535,801.104675 1168.603516,800.908081 
	C1155.004883,779.177612 1136.411743,763.828064 1113.134521,754.141663 
	C1095.993896,747.008911 1077.950562,744.133301 1059.487061,744.102783 
	C994.008972,743.994507 928.530640,744.030701 863.052429,744.062195 
	C861.690857,744.062866 860.329529,744.668091 858.968079,744.991211 
	C858.968079,744.991211 858.889160,744.898560 858.840942,744.861511 
z"/>
<path fill="#325381" opacity="1.000000" stroke="none" 
	d="
M1169.062744,800.926392 
	C1171.263184,803.683716 1174.076050,806.217529 1175.407837,809.375793 
	C1178.722046,817.235413 1181.978027,825.220215 1184.105591,833.452454 
	C1186.410156,842.370361 1187.737671,851.583618 1188.909424,860.742432 
	C1191.233398,878.908264 1189.066284,896.844116 1183.770508,914.204956 
	C1180.850342,923.777649 1176.009033,932.768066 1171.944214,941.981567 
	C1171.585449,942.794861 1170.561890,943.314697 1169.459595,944.017883 
	C1169.072144,944.064880 1168.963623,943.970398 1169.035400,943.624878 
	C1187.354614,913.119568 1190.584106,880.389038 1185.354370,846.343994 
	C1182.879150,830.230774 1176.906494,815.260010 1168.873535,801.104675 
	C1168.873535,801.104675 1169.000977,800.987183 1169.062744,800.926392 
z"/>
<path fill="#325381" opacity="1.000000" stroke="none" 
	d="
M1169.127441,944.110901 
	C1166.130249,953.604797 1159.745483,960.417358 1151.454590,966.041565 
	C1151.040527,966.033081 1150.925171,965.921936 1151.068970,965.620728 
	C1157.129761,958.203125 1163.046631,951.086731 1168.963623,943.970337 
	C1168.963623,943.970398 1169.072144,944.064880 1169.127441,944.110901 
z"/>
<path fill="#325381" opacity="1.000000" stroke="none" 
	d="
M1151.100098,966.086609 
	C1148.024414,972.053284 1143.107422,975.834595 1136.463379,978.044861 
	C1136.033569,978.026123 1135.924316,977.911438 1136.109497,977.634033 
	C1141.171509,973.545105 1146.048340,969.733521 1150.925171,965.921936 
	C1150.925171,965.921936 1151.040527,966.033081 1151.100098,966.086609 
z"/>
<path fill="#325381" opacity="1.000000" stroke="none" 
	d="
M1136.089844,978.081787 
	C1135.364014,978.774536 1134.581787,979.411560 1133.468384,980.099854 
	C1133.137207,980.151184 1133.020020,980.017151 1133.128052,979.690186 
	C1134.132080,978.879272 1135.028198,978.395325 1135.924316,977.911377 
	C1135.924316,977.911438 1136.033569,978.026123 1136.089844,978.081787 
z"/>
<path fill="#F6F7F7" opacity="1.000000" stroke="none" 
	d="
M1136.109497,977.634033 
	C1135.028198,978.395325 1134.132080,978.879272 1133.069214,979.623413 
	C1120.415405,984.954773 1107.928589,990.026001 1095.132812,995.266846 
	C1080.629761,996.826355 1066.443726,999.312744 1052.240234,999.417786 
	C988.202576,999.891296 924.160034,999.690063 859.669922,999.721069 
	C859.172424,974.901245 859.096191,950.092529 859.081848,925.283752 
	C859.047302,865.498291 859.041748,805.712830 858.996338,745.459351 
	C860.329529,744.668091 861.690857,744.062866 863.052429,744.062195 
	C928.530640,744.030701 994.008972,743.994507 1059.487061,744.102783 
	C1077.950562,744.133301 1095.993896,747.008911 1113.134521,754.141663 
	C1136.411743,763.828064 1155.004883,779.177612 1168.603516,800.908081 
	C1176.906494,815.260010 1182.879150,830.230774 1185.354370,846.343994 
	C1190.584106,880.389038 1187.354614,913.119568 1169.035400,943.624817 
	C1163.046631,951.086731 1157.129761,958.203125 1151.068970,965.620728 
	C1146.048340,969.733521 1141.171509,973.545105 1136.109497,977.634033 
z"/>
</svg>